
<svg xmlns="http://www.w3.org/2000/svg" width="1413" height="251" fill="none"><path fill="url(#a)" d="M117.4 46c10.1 0 18.7.9 25.6 2.6 6.9 1.7 12.5 4.5 16.7 8.2 4.2 3.7 7.1 8.5 9 14.3 1.8 5.8 2.7 12.8 2.7 21v123.5c0 3.3-1.7 5-5 5h-22.2c-3.3 0-5-1.7-5-5v-45.1H53.9c-10.3 0-18.9-.8-25.7-2.5-6.9-1.7-12.4-4.3-16.5-8-4.2-3.7-7.1-8.5-9-14.3-1.8-5.8-2.7-12.8-2.7-21V92.1c0-8.2.9-15.1 2.7-21 1.8-5.8 4.8-10.6 9-14.3 4.2-3.7 9.7-6.4 16.5-8.2 6.9-1.7 15.4-2.6 25.7-2.6h63.5Zm-85 72.3c0 4.8.4 8.8 1.1 12 .8 3.2 2.1 5.7 4 7.7s4.4 3.3 7.6 4.1c3.2.8 7.2 1.1 12 1.1h82.1V98.1c0-4.7-.4-8.6-1.1-11.9-.8-3.2-2.1-5.8-4-7.7-1.9-1.9-4.4-3.2-7.6-4.1-3.2-.8-7.3-1.2-12.2-1.2H57.2c-4.8 0-8.8.4-12 1.2-3.2.8-5.7 2.2-7.6 4.1-1.9 1.9-3.2 4.5-4 7.7-.8 3.3-1.1 7.2-1.1 11.9v20.2h-.1Z"/><path fill="url(#b)" d="M300 46c10.1 0 18.7.9 25.6 2.6 6.9 1.7 12.5 4.5 16.7 8.2 4.2 3.7 7.1 8.5 9 14.3 1.8 5.8 2.7 12.8 2.7 21v60.2c0 3.6-.3 6.6-.8 9-.5 2.3-1.4 4.2-2.7 5.6-1.3 1.4-3 2.3-5.1 2.8-2.1.5-4.8.8-8.2.8H229.3c-6.7 0-12.2-.6-16.7-1.9-4.5-1.3-8-3.2-10.8-5.8-2.7-2.6-4.6-5.9-5.8-10-1.1-4.1-1.7-8.9-1.7-14.5v-10.9c0-4.7.6-8.9 1.7-12.6 1.1-3.7 3.1-6.8 5.8-9.4 2.7-2.6 6.3-4.5 10.8-5.8 4.5-1.3 10-1.9 16.7-1.9h92.2v-4.3c0-3.6-.4-6.7-1.1-9.3-.8-2.6-2-4.6-3.9-6.2-1.8-1.6-4.3-2.8-7.5-3.5-3.2-.8-7.3-1.1-12.2-1.1h-94.7c-2.7 0-4.1-1.4-4.1-4.1v-19c0-2.7 1.4-4.1 4.1-4.1H300V46Zm15 99.5c2.4 0 4.1-.6 5.1-1.7s1.5-3.1 1.5-6v-19.9h-83c-4.7 0-8 .9-9.9 2.8-1.9 1.9-2.8 4.6-2.8 8.3v4.8c0 4.1.9 7.1 2.8 9 1.9 1.9 5.2 2.8 9.9 2.8H315v-.1Z"/><path fill="url(#c)" d="M495 46c2.7 0 4.1 1.4 4.1 4.1v19c0 2.7-1.4 4.1-4.1 4.1h-60.3c-4.8 0-8.8.4-12 1.2-3.2.8-5.7 2.2-7.6 4.1-1.9 1.9-3.2 4.5-4 7.7-.8 3.3-1.1 7.2-1.1 11.9v67.3c0 3.3-1.7 5-5 5h-22.2c-3.5 0-5.2-1.7-5.2-5V92c0-8.2.9-15.1 2.7-21 1.8-5.8 4.8-10.6 9-14.3 4.2-3.7 9.7-6.4 16.5-8.2 6.9-1.7 15.4-2.6 25.7-2.6H495v.1Z"/><path fill="url(#d)" d="M617.8 46c10.1 0 18.7.9 25.6 2.6 6.9 1.7 12.5 4.5 16.7 8.2 4.2 3.7 7.1 8.5 9 14.3 1.8 5.8 2.7 12.8 2.7 21v60.2c0 3.6-.3 6.6-.8 9-.5 2.3-1.4 4.2-2.7 5.6-1.3 1.4-3 2.3-5.1 2.8-2.1.5-4.8.8-8.2.8H547.1c-6.7 0-12.2-.6-16.7-1.9-4.5-1.3-8-3.2-10.8-5.8-2.7-2.6-4.6-5.9-5.8-10-1.1-4.1-1.7-8.9-1.7-14.5v-10.9c0-4.7.6-8.9 1.7-12.6 1.1-3.7 3.1-6.8 5.8-9.4 2.7-2.6 6.3-4.5 10.8-5.8 4.5-1.3 10-1.9 16.7-1.9h92.2v-4.3c0-3.6-.4-6.7-1.1-9.3-.8-2.6-2-4.6-3.9-6.2-1.8-1.6-4.3-2.8-7.5-3.5-3.2-.8-7.3-1.1-12.2-1.1h-94.7c-2.7 0-4.1-1.4-4.1-4.1v-19c0-2.7 1.4-4.1 4.1-4.1h97.9V46Zm15 99.5c2.4 0 4.1-.6 5.1-1.7s1.5-3.1 1.5-6v-19.9h-83c-4.7 0-8 .9-9.9 2.8-1.9 1.9-2.8 4.6-2.8 8.3v4.8c0 4.1.9 7.1 2.8 9 1.9 1.9 5.2 2.8 9.9 2.8h76.4v-.1Z"/><path fill="url(#e)" d="M814.3 46c10.1 0 18.7.9 25.6 2.6 6.9 1.7 12.5 4.5 16.7 8.2 4.2 3.7 7.1 8.5 9 14.3 1.8 5.8 2.7 12.8 2.7 21v73.4c0 3.3-1.7 5-5 5h-22.2c-3.3 0-5-1.7-5-5V99.8c0-4.7-.3-8.6-.9-11.9-.6-3.2-1.8-5.8-3.5-7.7-1.7-1.9-4.1-3.2-7.1-4.1-3-.8-7-1.2-11.8-1.2h-60.3c-4.8 0-8.8.4-12 1.2-3.2.8-5.7 2.2-7.6 4.1-1.9 1.9-3.2 4.5-4 7.7-.8 3.3-1.1 7.2-1.1 11.9v65.7c0 3.3-1.7 5-5 5h-22.2c-3.5 0-5.2-1.7-5.2-5V92.1c0-8.2.9-15.1 2.7-21 1.8-5.8 4.8-10.6 9-14.3 4.2-3.7 9.7-6.4 16.5-8.2 6.9-1.7 15.4-2.6 25.7-2.6h65Z"/><path fill="url(#f)" d="M911.6 46V16.1c0-3.3 1.7-5 5-5H939c3.3 0 5 1.7 5 5V46h39.7c2.7 0 4.1 1.4 4.1 4.1v18.6c0 2.7-1.4 4.1-4.1 4.1H944v52.6c0 6.3 1.3 11 3.9 13.9 2.6 2.9 7.6 4.4 15.2 4.4h22c2.7 0 4.1 1.4 4.1 4.1v18.6c0 2.7-1.4 4.1-4.1 4.1h-27.4c-9.1 0-16.5-.8-22.4-2.5-5.9-1.7-10.6-4.3-14.2-7.9-3.6-3.6-6-8.3-7.4-14.1-1.4-5.7-2-12.6-2-20.6V72.8H890c-2.7 0-4.1-1.4-4.1-4.1V50.1c0-2.7 1.4-4.1 4.1-4.1h21.6Z"/><path fill="url(#g)" d="M1034.9 0c3.3 0 5 1.7 5 5v21.5c0 3.5-1.7 5.2-5 5.2h-22.2c-3.5 0-5.2-1.7-5.2-5.2V5c0-3.3 1.7-5 5.2-5h22.2Zm0 46c3.3 0 5 1.7 5 5.2v114.2c0 3.3-1.7 5-5 5h-22.2c-3.3 0-5-1.7-5-5V51.3c0-3.5 1.7-5.2 5-5.2h22.2V46Z"/><path fill="url(#h)" d="M1096 .5c3.3 0 5 1.7 5 5v160c0 3.3-1.7 5-5 5h-22.2c-3.3 0-5-1.7-5-5V5.5c0-3.3 1.7-5 5-5h22.2Z"/><path fill="url(#i)" d="M1157.2 0c3.3 0 5 1.7 5 5v21.5c0 3.5-1.7 5.2-5 5.2H1135c-3.5 0-5.2-1.7-5.2-5.2V5c0-3.3 1.7-5 5.2-5h22.2Zm0 46c3.3 0 5 1.7 5 5.2v114.2c0 3.3-1.7 5-5 5H1135c-3.3 0-5-1.7-5-5V51.3c0-3.5 1.7-5.2 5-5.2h22.2V46Z"/><path fill="url(#j)" d="M1387.7 49.1v94.1c0 3.8-3.1 6.9-6.9 6.9h-142.5c-3.8 0-6.9-3.1-6.9-6.9V23.3h111.8l17-23H1207v142.8c0 17.2 14 31.3 31.3 31.3h142.5c17.2 0 31.3-14 31.3-31.3v-128l-24.4 34Z"/><path fill="url(#k)" d="m1309.5 87.9-10.1-10.1-21.9-21.5c-.4-.4-.9-.6-1.4-.6-.5 0-1.1.2-1.4.6L1258.3 73c-.4.4-.6.9-.6 1.4 0 .5.2 1 .6 1.4l52 51.1c.4.4.9.6 1.4.6.6 0 1.2-.3 1.6-.7L1410.6.3h-33.1l-57.9 74.6-10.1 13Z"/><path fill="#242C72" d="M973.32 197.864v-8.448c0-.939.469-1.408 1.408-1.408h6.336c.939 0 1.408.469 1.408 1.408v8.448h11.2c.768 0 1.152.384 1.152 1.152v5.248c0 .768-.384 1.152-1.152 1.152h-11.2v14.848c0 1.792.363 3.115 1.088 3.968.725.811 2.155 1.216 4.288 1.216h6.208c.768 0 1.152.384 1.152 1.152v5.248c0 .768-.384 1.152-1.152 1.152h-7.744c-2.56 0-4.672-.235-6.336-.704-1.664-.469-3.008-1.216-4.032-2.24-.981-1.024-1.664-2.347-2.048-3.968-.384-1.621-.576-3.563-.576-5.824v-14.848h-6.08c-.768 0-1.152-.384-1.152-1.152v-5.248c0-.768.384-1.152 1.152-1.152h6.08Zm59.66 0c2.18 0 3.97.192 5.38.576 1.45.341 2.58.939 3.39 1.792.85.811 1.45 1.899 1.79 3.264.34 1.323.52 2.944.52 4.864v6.08c0 1.365-.3 2.325-.9 2.88-.6.512-1.52.768-2.75.768h-32.32v1.536c0 2.005.47 3.456 1.41 4.352.98.896 2.85 1.344 5.63 1.344h26.69c.76 0 1.15.384 1.15 1.152v5.376c0 .768-.39 1.152-1.15 1.152h-27.59c-2.9 0-5.33-.235-7.29-.704-1.92-.469-3.48-1.216-4.68-2.24-1.15-1.067-1.98-2.411-2.493-4.032-.512-1.664-.768-3.648-.768-5.952v-9.216c0-2.304.256-4.267.768-5.888.513-1.664 1.343-3.008 2.493-4.032 1.2-1.067 2.76-1.835 4.68-2.304 1.96-.512 4.39-.768 7.29-.768h18.75Zm-24.89 14.528h25.92c.72 0 1.09-.363 1.09-1.088v-2.688c0-1.323-.28-2.261-.84-2.816-.55-.555-1.58-.832-3.07-.832h-16.06c-2.78 0-4.65.448-5.63 1.344-.94.853-1.41 2.304-1.41 4.352v1.728ZM1058.65 185c.94 0 1.41.469 1.41 1.408v45.184c0 .939-.47 1.408-1.41 1.408h-6.27c-.94 0-1.41-.469-1.41-1.408v-45.184c0-.939.47-1.408 1.41-1.408h6.27Zm42.08 12.864c2.18 0 3.97.192 5.38.576 1.45.341 2.58.939 3.39 1.792.85.811 1.45 1.899 1.79 3.264.34 1.323.52 2.944.52 4.864v6.08c0 1.365-.3 2.325-.9 2.88-.6.512-1.52.768-2.75.768h-32.32v1.536c0 2.005.47 3.456 1.41 4.352.98.896 2.85 1.344 5.63 1.344h26.69c.76 0 1.15.384 1.15 1.152v5.376c0 .768-.39 1.152-1.15 1.152h-27.59c-2.9 0-5.33-.235-7.29-.704-1.92-.469-3.48-1.216-4.68-2.24-1.15-1.067-1.98-2.411-2.49-4.032-.51-1.664-.77-3.648-.77-5.952v-9.216c0-2.304.26-4.267.77-5.888.51-1.664 1.34-3.008 2.49-4.032 1.2-1.067 2.76-1.835 4.68-2.304 1.96-.512 4.39-.768 7.29-.768h18.75Zm-24.89 14.528h25.92c.72 0 1.09-.363 1.09-1.088v-2.688c0-1.323-.28-2.261-.84-2.816-.55-.555-1.58-.832-3.07-.832h-16.06c-2.78 0-4.65.448-5.63 1.344-.94.853-1.41 2.304-1.41 4.352v1.728Zm47.17-14.528v-1.344c0-2.261.19-4.181.58-5.76.38-1.621 1.06-2.944 2.04-3.968s2.31-1.771 3.97-2.24c1.67-.512 3.78-.768 6.34-.768h7.74c.77 0 1.15.384 1.15 1.152v5.248c0 .768-.38 1.152-1.15 1.152h-6.21c-2.09 0-3.52.427-4.28 1.28-.73.811-1.09 2.112-1.09 3.904v1.344h11.2c.77 0 1.15.384 1.15 1.152v5.248c0 .768-.38 1.152-1.15 1.152h-11.2v26.176c0 .939-.47 1.408-1.41 1.408h-6.27c-.94 0-1.41-.469-1.41-1.408v-26.176h-6.14c-.77 0-1.16-.384-1.16-1.152v-5.248c0-.768.39-1.152 1.16-1.152h6.14Zm59.79 0c2.86 0 5.27.256 7.23.768 1.96.469 3.52 1.237 4.67 2.304 1.2 1.024 2.05 2.368 2.56 4.032.52 1.621.77 3.584.77 5.888v9.216c0 2.304-.25 4.288-.77 5.952-.51 1.621-1.36 2.965-2.56 4.032-1.15 1.024-2.71 1.771-4.67 2.24-1.96.469-4.37.704-7.23.704h-18.11c-2.9 0-5.34-.235-7.3-.704-1.92-.469-3.48-1.216-4.67-2.24-1.15-1.067-1.98-2.411-2.5-4.032-.51-1.664-.76-3.648-.76-5.952v-9.216c0-2.304.25-4.267.76-5.888.52-1.664 1.35-3.008 2.5-4.032 1.19-1.067 2.75-1.835 4.67-2.304 1.96-.512 4.4-.768 7.3-.768h18.11Zm-24.19 20.608c0 1.365.1 2.496.32 3.392.21.896.57 1.621 1.09 2.176.55.512 1.28.896 2.17 1.152.9.213 2.03.32 3.39.32h16.32c1.41 0 2.56-.107 3.46-.32.9-.256 1.6-.64 2.11-1.152.56-.555.94-1.28 1.15-2.176.22-.896.32-2.027.32-3.392v-6.08c0-1.323-.1-2.432-.32-3.328-.21-.896-.59-1.621-1.15-2.176-.51-.555-1.21-.939-2.11-1.152-.9-.213-2.05-.32-3.46-.32h-16.32c-1.36 0-2.49.107-3.39.32-.89.213-1.62.597-2.17 1.152-.52.555-.88 1.28-1.09 2.176-.22.896-.32 2.005-.32 3.328v6.08Zm80.39-20.608c2.86 0 5.27.256 7.23.768 1.97.469 3.52 1.237 4.68 2.304 1.19 1.024 2.04 2.368 2.56 4.032.51 1.621.76 3.584.76 5.888v20.736c0 .939-.46 1.408-1.4 1.408h-6.28c-.93 0-1.4-.469-1.4-1.408v-18.56c0-1.323-.09-2.432-.26-3.328-.17-.939-.51-1.664-1.02-2.176-.47-.555-1.13-.939-1.99-1.152-.85-.256-1.96-.384-3.33-.384h-17.02c-1.36 0-2.5.128-3.39.384-.9.213-1.62.597-2.18 1.152-.51.512-.87 1.237-1.09 2.176-.21.896-.32 2.005-.32 3.328v18.56c0 .939-.46 1.408-1.4 1.408h-6.28c-.98 0-1.47-.469-1.47-1.408v-20.736c0-2.304.26-4.267.77-5.888.51-1.664 1.34-3.008 2.5-4.032 1.19-1.067 2.75-1.835 4.67-2.304 1.96-.512 4.39-.768 7.29-.768H1239Zm85.11 0c.76 0 1.15.384 1.15 1.152v5.12c0 .768-.39 1.152-1.15 1.152h-28.87c-1.32 0-2.24.256-2.75.768-.51.469-.77 1.173-.77 2.112v.96c0 .853.26 1.536.77 2.048.51.469 1.43.704 2.75.704h21.57c3.58 0 6.14.747 7.68 2.24 1.54 1.493 2.3 3.605 2.3 6.336v3.584c0 1.408-.17 2.667-.51 3.776-.34 1.109-.91 2.048-1.73 2.816-.76.768-1.79 1.365-3.07 1.792-1.28.384-2.86.576-4.73.576h-32.77c-.77 0-1.15-.384-1.15-1.152v-5.12c0-.768.38-1.152 1.15-1.152h30.33c1.33 0 2.24-.235 2.76-.704.55-.469.83-1.259.83-2.368v-1.728c0-.853-.28-1.515-.83-1.984-.52-.469-1.43-.704-2.76-.704h-21.5c-3.58 0-6.14-.725-7.68-2.176-1.54-1.493-2.3-3.648-2.3-6.464v-2.816c0-1.323.17-2.517.51-3.584.34-1.109.89-2.048 1.66-2.816.81-.768 1.86-1.344 3.14-1.728 1.28-.427 2.86-.64 4.73-.64h31.24Zm38.03 0c2.85 0 5.26.256 7.23.768 1.96.469 3.52 1.237 4.67 2.304 1.19 1.024 2.05 2.368 2.56 4.032.51 1.621.77 3.584.77 5.888v17.024c0 1.024-.09 1.877-.26 2.56-.13.64-.38 1.152-.77 1.536-.34.384-.81.661-1.4.832-.6.128-1.37.192-2.31.192h-30.46c-1.88 0-3.46-.171-4.74-.512-1.24-.384-2.24-.939-3.01-1.664-.76-.725-1.32-1.664-1.66-2.816-.3-1.152-.45-2.517-.45-4.096v-3.072c0-1.323.15-2.496.45-3.52.34-1.067.9-1.963 1.66-2.688.77-.725 1.77-1.259 3.01-1.6 1.28-.384 2.86-.576 4.74-.576h26.05v-1.216c0-1.024-.11-1.899-.32-2.624-.22-.725-.58-1.301-1.09-1.728-.51-.469-1.22-.811-2.11-1.024-.9-.213-2.05-.32-3.46-.32h-26.75c-.77 0-1.15-.384-1.15-1.152v-5.376c0-.768.38-1.152 1.15-1.152h27.65Zm4.22 28.096c.68 0 1.15-.149 1.41-.448.3-.341.45-.917.45-1.728v-5.632h-23.43c-1.32 0-2.26.277-2.81.832-.52.512-.77 1.28-.77 2.304v1.344c0 1.152.25 2.005.77 2.56.55.512 1.49.768 2.81.768h21.57Zm22.15-28.096v-8.448c0-.939.47-1.408 1.41-1.408h6.33c.94 0 1.41.469 1.41 1.408v8.448h11.2c.77 0 1.15.384 1.15 1.152v5.248c0 .768-.38 1.152-1.15 1.152h-11.2v14.848c0 1.792.36 3.115 1.09 3.968.72.811 2.15 1.216 4.29 1.216h6.2c.77 0 1.16.384 1.16 1.152v5.248c0 .768-.39 1.152-1.16 1.152h-7.74c-2.56 0-4.67-.235-6.34-.704-1.66-.469-3-1.216-4.03-2.24-.98-1.024-1.66-2.347-2.05-3.968-.38-1.621-.57-3.563-.57-5.824v-14.848h-6.08c-.77 0-1.15-.384-1.15-1.152v-5.248c0-.768.38-1.152 1.15-1.152h6.08Z"/>
<defs><linearGradient id="a" x1="-.0535" x2="171.3" y1="133.306" y2="133.306" gradientUnits="userSpaceOnUse"><stop offset=".0112" stop-color="#EF7C00"/><stop offset=".2872" stop-color="#F7870F"/><stop offset=".6321" stop-color="#FD901A"/><stop offset="1" stop-color="#FF931E"/></linearGradient><linearGradient id="b" x1="194.417" x2="353.985" y1="108.26" y2="108.26" gradientUnits="userSpaceOnUse"><stop offset=".0112" stop-color="#EF7C00"/><stop offset=".2872" stop-color="#F7870F"/><stop offset=".6321" stop-color="#FD901A"/><stop offset="1" stop-color="#FF931E"/></linearGradient><linearGradient id="c" x1="377.552" x2="499.042" y1="108.26" y2="108.26" gradientUnits="userSpaceOnUse"><stop offset=".0112" stop-color="#EF7C00"/><stop offset=".2872" stop-color="#F7870F"/><stop offset=".6321" stop-color="#FD901A"/><stop offset="1" stop-color="#FF931E"/></linearGradient><linearGradient id="d" x1="512.187" x2="671.755" y1="108.26" y2="108.26" gradientUnits="userSpaceOnUse"><stop offset=".0112" stop-color="#EF7C00"/><stop offset=".2872" stop-color="#F7870F"/><stop offset=".6321" stop-color="#FD901A"/><stop offset="1" stop-color="#FF931E"/></linearGradient><linearGradient id="e" x1="695.324" x2="868.264" y1="108.26" y2="108.26" gradientUnits="userSpaceOnUse"><stop offset=".0112" stop-color="#EF7C00"/><stop offset=".2872" stop-color="#F7870F"/><stop offset=".6321" stop-color="#FD901A"/><stop offset="1" stop-color="#FF931E"/></linearGradient><linearGradient id="f" x1="885.94" x2="989.071" y1="90.8078" y2="90.8078" gradientUnits="userSpaceOnUse"><stop offset=".0112" stop-color="#EF7C00"/><stop offset=".2872" stop-color="#F7870F"/><stop offset=".6321" stop-color="#FD901A"/><stop offset="1" stop-color="#FF931E"/></linearGradient><linearGradient id="g" x1="1007.43" x2="1039.84" y1="85.2545" y2="85.2545" gradientUnits="userSpaceOnUse"><stop offset=".0112" stop-color="#EF7C00"/><stop offset=".2872" stop-color="#F7870F"/><stop offset=".6321" stop-color="#FD901A"/><stop offset="1" stop-color="#FF931E"/></linearGradient><linearGradient id="h" x1="1068.85" x2="1101.04" y1="85.4814" y2="85.4814" gradientUnits="userSpaceOnUse"><stop offset=".0112" stop-color="#EF7C00"/><stop offset=".2872" stop-color="#F7870F"/><stop offset=".6321" stop-color="#FD901A"/><stop offset="1" stop-color="#FF931E"/></linearGradient><linearGradient id="i" x1="1129.82" x2="1162.23" y1="85.2545" y2="85.2545" gradientUnits="userSpaceOnUse"><stop offset=".0112" stop-color="#EF7C00"/><stop offset=".2872" stop-color="#F7870F"/><stop offset=".6321" stop-color="#FD901A"/><stop offset="1" stop-color="#FF931E"/></linearGradient><linearGradient id="j" x1="1206.95" x2="1431.99" y1="87.3441" y2="87.3441" gradientUnits="userSpaceOnUse"><stop offset=".0112" stop-color="#EF7C00"/><stop offset=".2872" stop-color="#F7870F"/><stop offset=".6321" stop-color="#FD901A"/><stop offset="1" stop-color="#FF931E"/></linearGradient><linearGradient id="k" x1="1257.68" x2="1425.41" y1="63.947" y2="63.947" gradientUnits="userSpaceOnUse"><stop offset=".0112" stop-color="#EF7C00"/><stop offset=".2872" stop-color="#F7870F"/><stop offset=".6321" stop-color="#FD901A"/><stop offset="1" stop-color="#FF931E"/></linearGradient></defs>
</svg>